<svg xmlns="http://www.w3.org/2000/svg" width="24" height="24" viewBox="0 0 24 24">
  <g id="chip" transform="translate(0 -0.001)">
    <g id="Group_6" data-name="Group 6" transform="translate(6.64 0.001)">
      <g id="Group_5" data-name="Group 5" transform="translate(0 0)">
        <path id="Path_6" data-name="Path 6" d="M113.253,10.376h-5.042V9.664h1.36a.313.313,0,1,0,0-.626h-1.36V8.325h.944a1.308,1.308,0,0,0,.931-.386l2.059-2.059a.982.982,0,1,0-.443-.443L109.644,7.5a.686.686,0,0,1-.489.2h-.944V7.008a1.654,1.654,0,0,0-1.652-1.652h-.691V2.584a.983.983,0,1,0-.626,0V5.356h-.712V4a.313.313,0,1,0-.626,0v1.36h-.713V.314a.313.313,0,0,0-.626,0V5.356h-.712V4a.313.313,0,1,0-.626,0v1.36h-.712V4.412a1.309,1.309,0,0,0-.386-.931l-2.06-2.06a.983.983,0,1,0-.443.443l2.06,2.06a.686.686,0,0,1,.2.489v.944H99.2a1.659,1.659,0,0,0-.413.052.313.313,0,0,0,.156.607,1.031,1.031,0,0,1,.257-.032h7.363a1.027,1.027,0,0,1,1.026,1.026v7.363a1.032,1.032,0,0,1-.032.256.313.313,0,1,0,.607.156,1.657,1.657,0,0,0,.052-.412V13.68h2.772a.983.983,0,1,0,0-.626h-2.772v-.713h1.36a.313.313,0,1,0,0-.626h-1.36V11h5.042a.313.313,0,0,0,0-.626Zm-.921-5.629a.356.356,0,1,1-.1.252A.354.354,0,0,1,112.332,4.748ZM97.44,1.235a.356.356,0,1,1,0-.5A.357.357,0,0,1,97.44,1.235Zm8.115.774a.356.356,0,1,1,.356-.356A.357.357,0,0,1,105.555,2.009Zm6.359,11a.356.356,0,1,1-.356.356A.357.357,0,0,1,111.914,13.011Z" transform="translate(-96.206 -0.001)" fill="#e8e8e8"/>
      </g>
    </g>
    <g id="Group_8" data-name="Group 8" transform="translate(0 8.983)">
      <g id="Group_7" data-name="Group 7">
        <path id="Path_7" data-name="Path 7" d="M17.073,165.647a.984.984,0,0,0-1.131-.185l-2.06-2.06a.686.686,0,0,1-.2-.489v-.944h.691a1.658,1.658,0,0,0,.413-.052.313.313,0,0,0-.156-.607,1.03,1.03,0,0,1-.257.032H7.007a1.027,1.027,0,0,1-1.026-1.026v-7.363a1.03,1.03,0,0,1,.032-.257.313.313,0,0,0-.606-.156,1.656,1.656,0,0,0-.052.413v.691H2.583a.983.983,0,1,0,0,.626H5.355v.712H3.995a.313.313,0,0,0,0,.626h1.36v.712H.313a.313.313,0,0,0,0,.626H5.355v.712H3.995a.313.313,0,1,0,0,.626h1.36V159H4.411a1.308,1.308,0,0,0-.931.386L1.42,161.445a.982.982,0,1,0,.443.443l2.059-2.059a.686.686,0,0,1,.489-.2h.944v.691a1.654,1.654,0,0,0,1.652,1.652H7.7v2.772a.983.983,0,1,0,.626,0v-2.772h.712v1.36a.313.313,0,0,0,.626,0v-1.36h.712v5.042a.313.313,0,0,0,.626,0v-5.042h.712v1.36a.313.313,0,0,0,.626,0v-1.36h.712v.944a1.308,1.308,0,0,0,.386.931l2.06,2.06a.982.982,0,1,0,1.574-.258ZM1.652,154.314a.356.356,0,1,1,.356-.356A.357.357,0,0,1,1.652,154.314Zm-.417,8.263a.356.356,0,1,1,.1-.252A.354.354,0,0,1,1.234,162.577Zm7.133,3.1a.356.356,0,1,1-.356-.356A.357.357,0,0,1,8.367,165.673Zm8.263.921a.356.356,0,1,1,0-.5A.357.357,0,0,1,16.63,166.594Z" transform="translate(0 -152.306)" fill="#e8e8e8"/>
      </g>
    </g>
  </g>
</svg>
