<svg xmlns="http://www.w3.org/2000/svg" width="24" height="21.394" viewBox="0 0 24 21.394">
  <g id="home" transform="translate(0.001 -27.797)">
    <g id="Group_2" data-name="Group 2" transform="translate(-0.001 27.798)">
      <g id="Group_1" data-name="Group 1" transform="translate(0 0)">
        <path id="Path_1" data-name="Path 1" d="M23.744,35.711l-11.376-7.8a.658.658,0,0,0-.737,0L.255,35.711a.56.56,0,0,0-.135.816.652.652,0,0,0,.872.126L12,29.105l11.008,7.548a.649.649,0,0,0,.368.113.637.637,0,0,0,.5-.239A.56.56,0,0,0,23.744,35.711Z" transform="translate(0.001 -27.798)" fill="#e8e8e8"/>
      </g>
    </g>
    <g id="Group_4" data-name="Group 4" transform="translate(2.478 38.144)">
      <g id="Group_3" data-name="Group 3" transform="translate(0 0)">
        <path id="Path_2" data-name="Path 2" d="M74.861,232.543a.611.611,0,0,0-.635.584v9.3H69.148v-5.074a3.185,3.185,0,0,0-6.348,0v5.074H57.722v-9.3a.637.637,0,0,0-1.27,0v9.879a.611.611,0,0,0,.635.584h6.348a.615.615,0,0,0,.632-.538.406.406,0,0,0,0-.046v-5.658a1.911,1.911,0,0,1,3.809,0v5.658a.4.4,0,0,0,0,.045.615.615,0,0,0,.632.539h6.348a.611.611,0,0,0,.635-.584v-9.879A.611.611,0,0,0,74.861,232.543Z" transform="translate(-56.452 -232.543)" fill="#e8e8e8"/>
      </g>
    </g>
  </g>
</svg>
