<svg xmlns="http://www.w3.org/2000/svg" width="24" height="24" viewBox="0 0 24 24">
  <g id="files" transform="translate(0 0)">
    <g id="Group_10" data-name="Group 10" transform="translate(0 0)">
      <g id="Group_9" data-name="Group 9">
        <path id="Path_11" data-name="Path 11" d="M1.552,21.75V2.25a.763.763,0,0,1,.776-.75H13.965v3A1.526,1.526,0,0,0,15.517,6h3.1V8.25h1.552v-3a.737.737,0,0,0-.225-.532L15.292.217A.79.79,0,0,0,14.741,0H2.328A2.29,2.29,0,0,0,0,2.25v19.5A2.29,2.29,0,0,0,2.328,24H7.758V22.5H2.328A.763.763,0,0,1,1.552,21.75Z" transform="translate(0 0)" fill="#e8e8e8"/>
        <path id="Path_12" data-name="Path 12" d="M387.828,258.552h-1.276v1.276h1.276V261.1h-2.552v-3.828H389.1A1.276,1.276,0,0,0,387.828,256h-2.552A1.276,1.276,0,0,0,384,257.276V261.1a1.276,1.276,0,0,0,1.276,1.276h2.552A1.276,1.276,0,0,0,389.1,261.1v-1.276A1.276,1.276,0,0,0,387.828,258.552Z" transform="translate(-365.104 -243.186)" fill="#e8e8e8"/>
        <path id="Path_13" data-name="Path 13" d="M242.552,256A2.552,2.552,0,0,0,240,258.552v1.276a2.552,2.552,0,1,0,5.1,0v-1.276A2.552,2.552,0,0,0,242.552,256Zm1.276,3.828a1.276,1.276,0,1,1-2.552,0v-1.276a1.276,1.276,0,0,1,2.552,0Z" transform="translate(-228.19 -243.186)" fill="#e8e8e8"/>
        <path id="Path_14" data-name="Path 14" d="M129.276,256H128v5.742a.638.638,0,0,0,.638.638h3.19V261.1h-2.552Z" transform="translate(-121.793 -243.186)" fill="#e8e8e8"/>
      </g>
    </g>
  </g>
</svg>
