<svg xmlns="http://www.w3.org/2000/svg" xmlns:xlink="http://www.w3.org/1999/xlink" width="207.729" height="38.506" viewBox="0 0 207.729 38.506">
  <defs>
    <linearGradient id="linear-gradient" y1="0.5" x2="1" y2="0.5" gradientUnits="objectBoundingBox">
      <stop offset="0" stop-color="#87f1fc"/>
      <stop offset="0.256" stop-color="#7fd4fb"/>
      <stop offset="0.53" stop-color="#78bcfb"/>
      <stop offset="0.784" stop-color="#74aefa"/>
      <stop offset="1" stop-color="#73a9fa"/>
    </linearGradient>
  </defs>
  <g id="Group_50" data-name="Group 50" transform="translate(-45 -28)">
    <g id="Group_18" data-name="Group 18" transform="translate(-38 10)">
      <g id="icon" transform="matrix(1, 0.017, -0.017, 1, 94.435, 23.485)">
        <path id="Path_21" data-name="Path 21" d="M15.744,5.634V1.868h-.929L10.5,0l-.241.558,3.024,1.31H9.542v.7C7.081,2.616,3.62,2.85,2.773,5.38c-.673,2,1.651,4.075,2.848,5.341,1.582,1.668,3.986,3.574,4.525,5.925.684,2.982-7.474,3.271-8.93,3.4-.953.084-1.839,2.074-.629,1.968,3.38-.3,8.733-.5,10.864-3.7,1.372-2.061.034-4.285-1.32-5.938C8.5,10.39,6.4,8.74,5,6.582c-.38-.586-.6-1.139-.35-1.288,1.348-.8,3.328-.76,4.9-.776V5.635h6.2Z" transform="translate(0 0)" fill="url(#linear-gradient)"/>
      </g>
      <path id="shield" d="M19.179,38.506a1.5,1.5,0,0,1-.673-.159,33.637,33.637,0,0,1-8.735-6.966,37,37,0,0,1-6.263-9.292A38.3,38.3,0,0,1,0,8.361a1.5,1.5,0,0,1,1.4-1.6A5.273,5.273,0,0,0,6.319,1.5,1.5,1.5,0,0,1,7.823,0H30.686a1.5,1.5,0,0,1,1.5,1.5A5.274,5.274,0,0,0,37.1,6.757,1.5,1.5,0,0,1,38.5,8.4a39.926,39.926,0,0,1-4.457,15.1,1.5,1.5,0,1,1-2.655-1.414A36.637,36.637,0,0,0,35.347,9.5a8.31,8.31,0,0,1-6.028-6.5H9.189A8.308,8.308,0,0,1,3.123,9.515,33.816,33.816,0,0,0,11.9,29.253a33.117,33.117,0,0,0,7.27,6.02,34.093,34.093,0,0,0,8.191-7.2,1.5,1.5,0,1,1,2.314,1.922,34.824,34.824,0,0,1-9.812,8.35,1.5,1.5,0,0,1-.685.165Z" transform="translate(83 18)" fill="url(#linear-gradient)"/>
    </g>
    <path id="Intersection_1" data-name="Intersection 1" d="M-1703.546-352.18a6.94,6.94,0,0,1-2.2-1.008l1.188-2.25a6.7,6.7,0,0,0,1.944.972,7.3,7.3,0,0,0,2.214.342,3.9,3.9,0,0,0,1.908-.4,1.2,1.2,0,0,0,.7-1.08.93.93,0,0,0-.558-.855,9.523,9.523,0,0,0-1.782-.639,18.121,18.121,0,0,1-2-.693,3.635,3.635,0,0,1-1.341-1,2.628,2.628,0,0,1-.567-1.764,3.708,3.708,0,0,1,.711-2.25,4.487,4.487,0,0,1,2.016-1.494,8.125,8.125,0,0,1,3.033-.522,10.051,10.051,0,0,1,2.412.279,6.378,6.378,0,0,1,1.944.8l-1.1,2.232a5.175,5.175,0,0,0-1.584-.729,6.878,6.878,0,0,0-1.836-.243,3.805,3.805,0,0,0-1.962.432,1.277,1.277,0,0,0-.72,1.116.9.9,0,0,0,.306.693,2.311,2.311,0,0,0,.774.45q.468.171,1.314.4a14.825,14.825,0,0,1,1.98.657,3.6,3.6,0,0,1,1.323.972,2.491,2.491,0,0,1,.549,1.683,3.664,3.664,0,0,1-.72,2.259,4.63,4.63,0,0,1-2.034,1.494,8.135,8.135,0,0,1-3.06.531A10.254,10.254,0,0,1-1703.546-352.18Zm-120.1-.783a4.066,4.066,0,0,1-1.35-3.231,7.346,7.346,0,0,1,.144-1.35l1.4-7.056h2.934l-1.4,7a6.01,6.01,0,0,0-.108,1.062,2.19,2.19,0,0,0,.621,1.7,2.6,2.6,0,0,0,1.809.567,2.868,2.868,0,0,0,2.124-.792,4.959,4.959,0,0,0,1.152-2.538l1.4-7h2.862l-1.422,7.182q-1.152,5.634-6.444,5.634A5.476,5.476,0,0,1-1823.642-352.963Zm103.7.963,2.52-12.6h5.274a7.924,7.924,0,0,1,3.321.639,4.823,4.823,0,0,1,2.142,1.827,5.126,5.126,0,0,1,.747,2.79,7.411,7.411,0,0,1-.99,3.861,6.69,6.69,0,0,1-2.763,2.574,8.857,8.857,0,0,1-4.095.909Zm3.4-2.394h2.844a5.09,5.09,0,0,0,2.565-.621,4.188,4.188,0,0,0,1.665-1.71,5.172,5.172,0,0,0,.576-2.457,2.8,2.8,0,0,0-.918-2.223,3.939,3.939,0,0,0-2.664-.8h-2.5Zm-9.306,2.394,2.52-12.6h2.934l-2.52,12.6Zm-13.608,0,2.034-10.224h-4.032l.486-2.376h10.98l-.486,2.376h-4.014L-1736.54-352Zm-14.688,0,2.52-12.6h9.522l-.486,2.34h-6.606l-.54,2.736h5.85l-.45,2.268h-5.868l-.576,2.916h6.876l-.486,2.34Zm-5.382,0-4.7-7.884-1.584,7.884h-2.88l2.52-12.6h2.412l4.7,7.9,1.566-7.9h2.88l-2.52,12.6Zm-25.128,0,2.52-12.6h2.934l-2.052,10.224h6.318l-.486,2.376Zm-4.23,0-.594-2.7h-5.868l-1.638,2.7h-3.114l8.154-12.6h2.88l3.1,12.6Zm-5.112-4.914h4.032l-1.062-4.86Zm-9.576,4.914-1.98-3.528h-2.484l-.7,3.528h-2.934l2.52-12.6h5.13a5.726,5.726,0,0,1,3.636,1.026,3.464,3.464,0,0,1,1.3,2.88,4.862,4.862,0,0,1-.954,3.024,5.1,5.1,0,0,1-2.646,1.782l2.2,3.888Zm-4.014-5.85h2.484a3.44,3.44,0,0,0,2.259-.666,2.339,2.339,0,0,0,.8-1.908,1.565,1.565,0,0,0-.612-1.35,2.911,2.911,0,0,0-1.746-.45h-2.3Zm-30.348,5.85,2.52-12.6h9.522l-.486,2.34h-6.606l-.54,2.736h5.85l-.45,2.268h-5.868l-.576,2.916h6.876l-.486,2.34Zm-5.382,0-4.7-7.884L-1849.6-352h-2.88l2.52-12.6h2.412l4.7,7.9,1.566-7.9h2.88l-2.52,12.6Z" transform="translate(1946 405.816)" stroke="rgba(0,0,0,0)" stroke-width="1" fill="url(#linear-gradient)"/>
  </g>
</svg>
