<svg xmlns="http://www.w3.org/2000/svg" xmlns:xlink="http://www.w3.org/1999/xlink" width="102.735" height="102.735" viewBox="0 0 102.735 102.735">
  <defs>
    <linearGradient id="linear-gradient" y1="0.5" x2="1" y2="0.5" gradientUnits="objectBoundingBox">
      <stop offset="0" stop-color="#87f1fc"/>
      <stop offset="0.256" stop-color="#7fd4fb"/>
      <stop offset="0.53" stop-color="#78bcfb"/>
      <stop offset="0.784" stop-color="#74aefa"/>
      <stop offset="1" stop-color="#73a9fa"/>
    </linearGradient>
    <filter id="Path_25" x="0" y="0" width="102.735" height="102.735" filterUnits="userSpaceOnUse">
      <feOffset dy="5" input="SourceAlpha"/>
      <feGaussianBlur stdDeviation="7.5" result="blur"/>
      <feFlood flood-color="#178ec1" flood-opacity="0.161"/>
      <feComposite operator="in" in2="blur"/>
      <feComposite in="SourceGraphic"/>
    </filter>
  </defs>
  <g id="Group_26" data-name="Group 26" transform="translate(-1178.5 -57.5)">
    <circle id="Ellipse_2" data-name="Ellipse 2" cx="29" cy="29" r="29" transform="translate(1201 75)" fill="#fff"/>
    <g id="notification_1_" data-name="notification (1)" transform="translate(1200.999 75)">
      <g id="Group_25" data-name="Group 25" transform="translate(0.001)">
        <g transform="matrix(1, 0, 0, 1, -22.5, -17.5)" filter="url(#Path_25)">
          <path id="Path_25-2" data-name="Path 25" d="M28.868,0A28.868,28.868,0,1,0,57.736,28.867,28.868,28.868,0,0,0,28.868,0Zm0,44.832a3.752,3.752,0,0,1-3.753-3.753h7.5A3.752,3.752,0,0,1,28.868,44.832Zm12.681-7.515h0c0,1.388-1.124,1.479-2.511,1.479H18.7c-1.387,0-2.511-.091-2.511-1.479v-.239a2.506,2.506,0,0,1,1.428-2.258l.8-6.881a10.459,10.459,0,0,1,8.3-10.233V15.034a2.151,2.151,0,0,1,4.3,0v2.671a10.458,10.458,0,0,1,8.3,10.233l.8,6.882a2.5,2.5,0,0,1,1.428,2.257Z" transform="translate(22.5 17.5)" fill="url(#linear-gradient)"/>
        </g>
      </g>
    </g>
  </g>
</svg>
