<svg id="settings" xmlns="http://www.w3.org/2000/svg" width="24" height="24" viewBox="0 0 24 24">
  <path id="Path_8" data-name="Path 8" d="M23.639,10.452l-1.39-.268a2.417,2.417,0,0,1-1.492-3.8l.873-1.191a.444.444,0,0,0-.044-.577L19.7,2.729a.444.444,0,0,0-.564-.054l-1.172.794a2.417,2.417,0,0,1-3.744-1.634L13.995.376A.444.444,0,0,0,13.556,0H10.889a.444.444,0,0,0-.436.361l-.345,1.8A2.418,2.418,0,0,1,6.378,3.7L4.864,2.676a.445.445,0,0,0-.564.054L2.415,4.615a.445.445,0,0,0-.044.577l.873,1.191a2.417,2.417,0,0,1-1.493,3.8l-1.39.268a.443.443,0,0,0-.36.436v2.667a.444.444,0,0,0,.377.439l1.459.224a2.417,2.417,0,0,1,1.633,3.745l-.794,1.172a.444.444,0,0,0,.054.564l1.885,1.885a.444.444,0,0,0,.577.044l1.191-.873a2.417,2.417,0,0,1,3.8,1.492l.268,1.39a.444.444,0,0,0,.436.36h2.667a.444.444,0,0,0,.439-.377l.158-1.026a2.417,2.417,0,0,1,3.818-1.581l.837.614a.444.444,0,0,0,.577-.044L21.27,19.7a.444.444,0,0,0,.054-.564l-.794-1.172a2.417,2.417,0,0,1,1.634-3.745l1.459-.224A.444.444,0,0,0,24,13.556V10.889A.444.444,0,0,0,23.639,10.452Zm-.528,2.722-1.082.167a3.306,3.306,0,0,0-2.234,5.122l.588.868-1.356,1.356L18.5,20.3a3.306,3.306,0,0,0-5.223,2.163l-.1.649H11.256l-.2-1.029a3.306,3.306,0,0,0-5.2-2.042l-.883.648L3.617,19.331l.588-.868a3.306,3.306,0,0,0-2.235-5.121L.889,13.174V11.256l1.03-.2a3.306,3.306,0,0,0,2.042-5.2l-.648-.884L4.669,3.617l1.21.82a3.306,3.306,0,0,0,5.1-2.113L11.256.889h1.918l.167,1.082a3.306,3.306,0,0,0,5.122,2.235l.868-.588,1.356,1.356-.648.883a3.306,3.306,0,0,0,2.042,5.2l1.029.2Z" fill="#e8e8e8"/>
  <path id="Path_9" data-name="Path 9" d="M21.13,17a4.13,4.13,0,1,0,4.13,4.13A4.134,4.134,0,0,0,21.13,17Zm0,7.472a3.343,3.343,0,1,1,3.343-3.343A3.347,3.347,0,0,1,21.13,24.472Z" transform="translate(-8.891 -8.891)" fill="#e8e8e8"/>
  <path id="Path_10" data-name="Path 10" d="M24.163,22a2.163,2.163,0,1,0,2.163,2.163A2.166,2.166,0,0,0,24.163,22Zm0,3.54a1.377,1.377,0,1,1,1.377-1.377A1.378,1.378,0,0,1,24.163,25.54Z" transform="translate(-11.934 -11.934)" fill="#e8e8e8"/>
</svg>
