<svg xmlns="http://www.w3.org/2000/svg" width="24" height="24" viewBox="0 0 24 24">
  <g id="system" transform="translate(0)">
    <g id="Group_12" data-name="Group 12" transform="translate(0 0)">
      <g id="Group_11" data-name="Group 11">
        <path id="Path_15" data-name="Path 15" d="M23.6,172.938h-.4V160.4a.4.4,0,0,0-.4-.4H1.2a.4.4,0,0,0-.4.4v12.534H.4a.4.4,0,0,0-.4.4v.809a2.013,2.013,0,0,0,2,2.022H22a2.013,2.013,0,0,0,2-2.022v-.809A.4.4,0,0,0,23.6,172.938Zm-22-12.13H22.4v12.13H15.2a.4.4,0,0,0-.283.119l-.682.69H9.766l-.682-.69a.4.4,0,0,0-.283-.119H1.6Zm21.6,13.343a1.207,1.207,0,0,1-1.2,1.213H2a1.207,1.207,0,0,1-1.2-1.213v-.4H8.634l.683.69a.4.4,0,0,0,.283.118h4.8a.4.4,0,0,0,.283-.118l.683-.69H23.2Z" transform="translate(0 -152.173)" fill="#e8e8e8"/>
        <path id="Path_16" data-name="Path 16" d="M46.816,192.2l4.812-4.468,4.79,2.826,3.539-3.586V184H40v9.318l4-3.154Zm-6.018-.538v-6.855h18.36v1.83l-2.87,2.908-4.766-2.811-4.768,4.427-2.773-2.006Z" transform="translate(-37.978 -174.862)" fill="#e8e8e8"/>
        <path id="Path_17" data-name="Path 17" d="M104.4,7.682a.4.4,0,0,0,.4-.4V6.407l1.379-.235a.4.4,0,0,0,.321-.308,4.41,4.41,0,0,1,.545-1.343.411.411,0,0,0-.013-.45l-.812-1.157.647-.659,1.135.828a.39.39,0,0,0,.442.014,4.237,4.237,0,0,1,1.316-.555.4.4,0,0,0,.3-.327l.232-1.405h.915l.23,1.405a.4.4,0,0,0,.3.327,4.237,4.237,0,0,1,1.318.555.39.39,0,0,0,.442-.014l1.135-.828.647.659-.812,1.157a.411.411,0,0,0-.013.45,4.41,4.41,0,0,1,.545,1.342.4.4,0,0,0,.321.308l1.379.235v.872a.4.4,0,1,0,.793,0V6.065a.4.4,0,0,0-.331-.4L115.7,5.418a5.257,5.257,0,0,0-.442-1.092l.857-1.221a.41.41,0,0,0-.042-.521l-1.123-1.145a.391.391,0,0,0-.511-.043l-1.2.875a5.051,5.051,0,0,0-1.071-.452L111.929.336A.4.4,0,0,0,111.537,0H109.95a.4.4,0,0,0-.391.338l-.244,1.482a5.05,5.05,0,0,0-1.071.45l-1.2-.873a.391.391,0,0,0-.511.043l-1.123,1.145a.41.41,0,0,0-.042.521l.857,1.22a5.259,5.259,0,0,0-.443,1.092l-1.455.248a.4.4,0,0,0-.33.4V7.278A.4.4,0,0,0,104.4,7.682Z" transform="translate(-98.744 0)" fill="#e8e8e8"/>
        <path id="Path_18" data-name="Path 18" d="M181.661,75.235a.4.4,0,1,0,.809,0,3.235,3.235,0,1,0-6.469,0,.4.4,0,1,0,.809,0,2.426,2.426,0,0,1,4.852,0Z" transform="translate(-167.235 -68.407)" fill="#e8e8e8"/>
        <path id="Path_19" data-name="Path 19" d="M208,105.617a.4.4,0,1,0,.809,0,.809.809,0,1,1,1.617,0,.4.4,0,1,0,.809,0,1.617,1.617,0,0,0-3.235,0Z" transform="translate(-197.617 -98.805)" fill="#e8e8e8"/>
        <path id="Path_20" data-name="Path 20" d="M59.957,278.469V272h-.8v6.065h-.8v-4.448h-.8v4.448h-.8V274.83h-.8v3.235h-.8v-4.043h-.8v4.043h-.8v-4.852h-.8v4.852h-.8V272.4h-.8v5.661h-.8v-4.043h-.8v4.043h-.8v-2.426h-.8v2.426h-.8v-1.617h-.8v1.617h-.8v-2.426h-.8v2.426h-.8v-2.83h-.8v2.83h-.8v-1.617h-.8v1.617h-.8v-.4H40v1.213H59.957Z" transform="translate(-37.978 -258.512)" fill="#e8e8e8"/>
      </g>
    </g>
  </g>
</svg>
